# xmcd
#
# Track frame offsets:
# 150
# 15887
# 34786
# 66611
# 78803
# 90815
# 108677
# 144013
# 200105
#
# Disc length: 3517 seconds
#
# Revision: 0
# Processed by: cddbd v1.5.2PL0 Copyright (c) Steve Scherf et al.
# Submitted via: Audion 3.0.2 (http://www.panic.com/audion/)
#
DISCID=690dbb09
DTITLE=Rainbow - Live in Scandinavium
DYEAR=1900
DGENRE=
TTITLE0=Guitar Solo
TTITLE1=Man On The Silver Mountain
TTITLE2=Long Live Rock'N'Roll
TTITLE3=Somewhere Over The Rainbow
TTITLE4=Drum Check
TTITLE5=Organ Guitar, Drum Check
TTITLE6=Guitar Organ Check
TTITLE7=Catch The Rainbow
TTITLE8=Instrumental Check
EXTD=
EXTT0=
EXTT1=
EXTT2=
EXTT3=
EXTT4=
EXTT5=
EXTT6=
EXTT7=
EXTT8=
PLAYORDER=
